<?xml version="1.0" standalone="no"?><!DOCTYPE svg PUBLIC "-//W3C//DTD SVG 1.1//EN" "http://www.w3.org/Graphics/SVG/1.1/DTD/svg11.dtd"><svg class="icon" width="200px" height="200.00px" viewBox="0 0 1024 1024" version="1.1" xmlns="http://www.w3.org/2000/svg"><path d="M547.997989 923.105982c-8.796-6.81-32.195999-21.054-51.995999-31.649999-19.8-10.602-98.999998-56.267999-176.003996-101.483998L179.999996 707.759986l-2.141999-193.235996-2.142-193.235996 22.139999-15.384c118.115998-82.073998 113.495998-87.617998 114.431998 137.303997 0.438 104.705998 2.7 188.471996 5.028 186.143997 2.328-2.328 27.419999 9.96 55.769999 27.311999 28.343999 17.346 55.895999 32.399999 61.223999 33.438l9.689999 1.895999 4.002-55.997998 3.996-55.997999h119.999998l2.16 177.995996L576.299989 935.999982l-6.15-0.252c-3.39-0.144-13.356-5.832-22.158-12.642z m164.003997-330.695994v-183.599996l-26.003999-19.092c-14.298-10.5-43.139999-28.865999-64.097999-40.799999l-38.099999-21.707999-3.696 10.391999c-2.034 5.718-4.686 31.997999-5.898 58.397999l-2.208 47.999999h-119.999998l-2.154-178.001996c-1.182-97.895998-0.204-177.995997 2.172-177.995997 2.382 0 17.748 8.436 34.158 18.75C513.11999 123.695998 549.671989 145.013997 731.999986 250.145995c30.797999 17.76 69.563999 40.835999 86.141998 51.275999l30.143999 18.99-2.142 193.451996-2.141999 193.451996-56.003999 33.756c-30.797999 18.564-60.497999 34.019999-65.999999 34.337999l-9.996 0.588z"  /><path d="M547.997989 923.105982c-8.796-6.81-32.195999-21.054-51.995999-31.649999-19.8-10.602-98.999998-56.267999-176.003996-101.483998L179.999996 707.759986l-2.141999-193.235996-2.142-193.235996 22.139999-15.384c118.115998-82.073998 113.495998-87.617998 114.431998 137.303997 0.438 104.705998 2.7 188.471996 5.028 186.143997 2.328-2.328 27.419999 9.96 55.769999 27.311999 28.343999 17.346 55.895999 32.399999 61.223999 33.438l9.689999 1.895999 4.002-55.997998 3.996-55.997999h119.999998l2.16 177.995996L576.299989 935.999982l-6.15-0.252c-3.39-0.144-13.356-5.832-22.158-12.642z m164.003997-330.695994v-183.599996l-26.003999-19.092c-14.298-10.5-43.139999-28.865999-64.097999-40.799999l-38.099999-21.707999-3.696 10.391999c-2.034 5.718-4.686 31.997999-5.898 58.397999l-2.208 47.999999h-119.999998l-2.154-178.001996c-1.182-97.895998-0.204-177.995997 2.172-177.995997 2.382 0 17.748 8.436 34.158 18.75C513.11999 123.695998 549.671989 145.013997 731.999986 250.145995c30.797999 17.76 69.563999 40.835999 86.141998 51.275999l30.143999 18.99-2.142 193.451996-2.141999 193.451996-56.003999 33.756c-30.797999 18.564-60.497999 34.019999-65.999999 34.337999l-9.996 0.588z"  /><path d="M547.997989 923.105982c-8.796-6.81-32.195999-21.054-51.995999-31.649999-19.8-10.602-98.999998-56.267999-176.003996-101.483998L179.999996 707.759986l-2.141999-193.235996-2.142-193.235996 22.139999-15.384c118.073998-82.037998 113.495998-87.497998 114.425998 136.511997l0.792 189.581997 9.462 0.018c5.208 0.012 30.569999 12.75 56.357999 28.301999 25.799999 15.552 50.999999 29.039999 56.003999 29.976l9.101999 1.703999 4.002-55.997998 3.996-55.997999h119.999998l2.16 177.995996L576.299989 935.999982l-6.15-0.252c-3.39-0.144-13.356-5.832-22.158-12.642z m164.003997-330.695994v-183.599996l-26.003999-19.092c-14.298-10.5-43.139999-28.865999-64.097999-40.799999l-38.099999-21.707999-3.696 10.391999c-2.034 5.718-4.686 31.997999-5.898 58.397999l-2.208 47.999999h-119.999998l-2.154-178.001996c-1.182-97.895998-0.204-177.995997 2.172-177.995997 2.382 0 17.748 8.436 34.158 18.75C513.11999 123.695998 549.671989 145.013997 731.999986 250.145995c30.797999 17.76 69.563999 40.835999 86.141998 51.275999l30.143999 18.99-2.142 193.451996-2.141999 193.451996-56.003999 33.756c-30.797999 18.564-60.497999 34.019999-65.999999 34.337999l-9.996 0.588z"  /><path d="M547.997989 923.105982c-8.796-6.81-32.195999-21.054-51.995999-31.649999-19.8-10.602-98.999998-56.267999-176.003996-101.483998L179.999996 707.759986l-2.141999-193.235996-2.142-193.235996 22.139999-15.384c118.073998-82.037998 113.495998-87.497998 114.425998 136.511997l0.792 189.581997 9.462 0.018c5.208 0.012 30.569999 12.75 56.357999 28.301999 25.799999 15.552 50.999999 29.039999 56.003999 29.976l9.101999 1.703999 4.002-55.997998 3.996-55.997999h119.999998l2.16 177.995996L576.299989 935.999982l-6.15-0.252c-3.39-0.144-13.356-5.832-22.158-12.642z m164.003997-330.695994v-183.599996l-26.003999-19.092c-14.298-10.5-43.139999-28.865999-64.097999-40.799999l-38.099999-21.707999-3.696 10.391999c-2.034 5.718-4.686 31.997999-5.898 58.397999l-2.208 47.999999h-119.999998l-2.154-178.001996c-1.182-97.895998-0.204-177.995997 2.172-177.995997 2.382 0 17.748 8.436 34.158 18.75C513.11999 123.695998 549.671989 145.013997 731.999986 250.145995c30.797999 17.76 69.563999 40.835999 86.141998 51.275999l30.143999 18.99-2.142 193.451996-2.141999 193.451996-56.003999 33.756c-30.797999 18.564-60.497999 34.019999-65.999999 34.337999l-9.996 0.588z"  /><path d="M547.997989 923.105982c-8.796-6.81-32.195999-21.054-51.995999-31.649999-19.8-10.602-98.999998-56.267999-176.003996-101.483998L179.999996 707.759986l-2.141999-193.235996-2.142-193.235996 22.139999-15.384c118.073998-82.037998 113.495998-87.497998 114.425998 136.511997l0.792 189.581997 9.462 0.018c5.208 0.012 30.569999 12.75 56.357999 28.301999 25.799999 15.552 50.999999 29.039999 56.003999 29.976l9.101999 1.703999 4.002-55.997998 3.996-55.997999h119.999998l2.16 177.995996L576.299989 935.999982l-6.15-0.252c-3.39-0.144-13.356-5.832-22.158-12.642z m164.003997-330.695994v-183.599996l-26.003999-19.092c-14.298-10.5-43.139999-28.865999-64.097999-40.799999l-38.099999-21.707999-3.696 10.391999c-2.034 5.718-4.686 31.997999-5.898 58.397999l-2.208 47.999999h-119.999998l-2.154-178.001996c-1.182-97.895998-0.204-177.995997 2.172-177.995997 2.382 0 17.748 8.436 34.158 18.75 43.319999 27.239999 177.449997 104.939998 208.085995 120.545998l26.262 13.379999-5.496 8.898-5.496 8.898 8.466-5.238 8.472-5.232 50.765999 28.686c27.923999 15.78 55.325999 32.471999 60.905999 37.091999l10.139999 8.412-2.142 192.557996-2.135999 192.563996-56.003999 33.756c-30.797999 18.564-60.497999 34.019999-65.999999 34.337999l-9.996 0.588z"  /><path d="M547.997989 923.105982c-8.796-6.81-32.195999-21.054-51.995999-31.649999-19.8-10.602-98.999998-56.267999-176.003996-101.483998L179.999996 707.759986l-2.141999-193.235996-2.142-193.235996 22.139999-15.384c118.073998-82.037998 113.495998-87.497998 114.425998 136.511997l0.792 189.581997 9.462 0.018c5.208 0.012 30.569999 12.75 56.357999 28.301999 25.799999 15.552 50.999999 29.039999 56.003999 29.976l9.101999 1.703999 4.002-55.997998 3.996-55.997999h119.999998l2.16 177.995996L576.299989 935.999982l-6.15-0.252c-3.39-0.144-13.356-5.832-22.158-12.642z m164.003997-330.695994v-183.599996l-26.003999-19.092c-14.298-10.5-43.139999-28.865999-64.097999-40.799999l-38.099999-21.707999-3.696 10.391999c-2.034 5.718-4.686 31.997999-5.898 58.397999l-2.208 47.999999h-119.999998l-2.154-178.001996c-1.182-97.895998-0.204-177.995997 2.172-177.995997 2.382 0 17.748 8.436 34.158 18.75 43.319999 27.239999 177.449997 104.939998 208.085995 120.545998l26.262 13.379999-5.496 8.898-5.496 8.898 8.466-5.238 8.472-5.232 50.765999 28.686c27.923999 15.78 55.325999 32.471999 60.905999 37.091999l10.139999 8.412-2.142 192.557996-2.135999 192.563996-56.003999 33.756c-30.797999 18.564-60.497999 34.019999-65.999999 34.337999l-9.996 0.588z"  /><path d="M547.997989 923.105982c-8.796-6.81-32.195999-21.054-51.995999-31.649999-19.8-10.602-98.999998-56.267999-176.003996-101.483998L179.999996 707.759986l-2.141999-193.235996-2.142-193.235996 22.139999-15.384c118.073998-82.037998 113.495998-87.497998 114.425998 136.511997l0.792 189.581997 9.462 0.018c5.208 0.012 30.569999 12.75 56.357999 28.301999 25.799999 15.552 50.999999 29.039999 56.003999 29.976l9.101999 1.703999 4.002-55.997998 3.996-55.997999h119.999998l2.16 177.995996L576.299989 935.999982l-6.15-0.252c-3.39-0.144-13.356-5.832-22.158-12.642z m164.003997-330.695994v-183.599996l-26.003999-19.092c-14.298-10.5-43.139999-28.865999-64.097999-40.799999l-38.099999-21.707999-3.696 10.391999c-2.034 5.718-4.686 31.997999-5.898 58.397999l-2.208 47.999999h-119.999998l-2.154-178.001996c-1.182-97.895998-0.204-177.995997 2.172-177.995997 2.382 0 17.748 8.436 34.158 18.75 43.319999 27.239999 177.449997 104.939998 208.085995 120.545998l26.262 13.379999-5.496 8.898-5.496 8.898 8.466-5.238 8.472-5.232 50.765999 28.686c27.923999 15.78 55.325999 32.471999 60.905999 37.091999l10.139999 8.412-2.142 192.557996-2.135999 192.563996-56.003999 33.756c-30.797999 18.564-60.497999 34.019999-65.999999 34.337999l-9.996 0.588z"  /><path d="M547.997989 923.105982c-8.796-6.81-32.195999-21.054-51.995999-31.649999-19.8-10.602-98.999998-56.267999-176.003996-101.483998L179.999996 707.759986l-2.141999-193.235996-2.142-193.235996 22.139999-15.384c118.073998-82.037998 113.495998-87.497998 114.425998 136.511997l0.792 189.581997 9.462 0.018c5.208 0.012 30.569999 12.75 56.357999 28.301999 25.799999 15.552 50.999999 29.039999 56.003999 29.976l9.101999 1.703999 4.002-55.997998 3.996-55.997999h119.999998l2.16 177.995996L576.299989 935.999982l-6.15-0.252c-3.39-0.144-13.356-5.832-22.158-12.642z m164.003997-330.695994v-183.599996l-26.003999-19.092c-14.298-10.5-43.139999-28.865999-64.097999-40.799999l-38.099999-21.707999-3.696 10.391999c-2.034 5.718-4.686 31.997999-5.898 58.397999l-2.208 47.999999h-119.999998l-2.154-178.001996c-1.182-97.895998-0.204-177.995997 2.172-177.995997 2.382 0 17.748 8.436 34.158 18.75 43.319999 27.239999 177.449997 104.939998 208.085995 120.545998l26.262 13.379999-5.496 8.898-5.496 8.898 8.466-5.238 8.472-5.232 50.765999 28.686c27.923999 15.78 55.325999 32.471999 60.905999 37.091999l10.139999 8.412-2.142 192.557996-2.135999 192.563996-56.003999 33.756c-30.797999 18.564-60.497999 34.019999-65.999999 34.337999l-9.996 0.588z"  /><path d="M547.997989 923.105982c-8.796-6.81-32.195999-21.054-51.995999-31.649999-19.8-10.602-98.999998-56.267999-176.003996-101.483998L179.999996 707.759986l-2.141999-193.235996-2.142-193.235996 22.139999-15.384c118.073998-82.037998 113.495998-87.497998 114.425998 136.511997l0.792 189.581997 9.462 0.018c5.208 0.012 30.569999 12.75 56.357999 28.301999 25.799999 15.552 50.999999 29.039999 56.003999 29.976l9.101999 1.703999 4.002-55.997998 3.996-55.997999h119.999998l2.16 177.995996L576.299989 935.999982l-6.15-0.252c-3.39-0.144-13.356-5.832-22.158-12.642z m164.003997-330.695994v-183.599996l-26.003999-19.092c-14.298-10.5-43.139999-28.865999-64.097999-40.799999l-38.099999-21.707999-3.696 10.391999c-2.034 5.718-4.686 31.997999-5.898 58.397999l-2.208 47.999999h-119.999998l-2.154-178.001996c-1.182-97.895998-0.204-177.995997 2.172-177.995997 2.382 0 17.748 8.436 34.158 18.75 43.319999 27.239999 177.449997 104.939998 208.085995 120.545998l26.262 13.379999-5.496 8.898-5.496 8.898 8.466-5.238 8.472-5.232 50.765999 28.686c27.923999 15.78 55.325999 32.471999 60.905999 37.091999l10.139999 8.412-2.142 192.557996-2.135999 192.563996-56.003999 33.756c-30.797999 18.564-60.497999 34.019999-65.999999 34.337999l-9.996 0.588z"  /><path d="M547.997989 923.105982c-8.796-6.81-32.195999-21.054-51.995999-31.649999-19.8-10.602-98.999998-56.267999-176.003996-101.483998L179.999996 707.759986l-2.141999-193.235996-2.142-193.235996 22.139999-15.384c118.073998-82.037998 113.495998-87.497998 114.425998 136.511997l0.792 189.581997 9.462 0.018c5.208 0.012 30.569999 12.75 56.357999 28.301999 25.799999 15.552 50.999999 29.039999 56.003999 29.976l9.101999 1.703999 4.002-55.997998 3.996-55.997999h119.999998l2.16 177.995996L576.299989 935.999982l-6.15-0.252c-3.39-0.144-13.356-5.832-22.158-12.642z m164.003997-330.695994v-183.599996l-26.003999-19.092c-14.298-10.5-43.139999-28.865999-64.097999-40.799999l-38.099999-21.707999-3.696 10.391999c-2.034 5.718-4.686 31.997999-5.898 58.397999l-2.208 47.999999h-119.999998l-2.154-178.001996-2.148-177.995997h4.92c2.7 0 14.472 6.522 26.148 14.49 11.682 7.98 52.463999 32.159999 90.635998 53.735999l69.401999 39.239999-4.68 8.262-4.686 8.268 6.258-5.64 6.251999-5.64 39.324 19.926 39.323999 19.919999-5.532 8.958-5.532 8.952 8.466-5.238 8.472-5.232 50.765999 28.686c27.923999 15.78 55.325999 32.471999 60.905999 37.091999l10.139999 8.412-2.142 192.557996-2.135999 192.563996-56.003999 33.756c-30.797999 18.564-60.497999 34.019999-65.999999 34.337999l-9.996 0.588z"  /><path d="M547.997989 923.105982c-8.796-6.81-32.195999-21.054-51.995999-31.649999-19.8-10.602-98.999998-56.267999-176.003996-101.483998L179.999996 707.759986l-2.141999-193.235996-2.142-193.235996 22.139999-15.384c118.073998-82.037998 113.495998-87.497998 114.425998 136.511997l0.792 189.581997 9.462 0.018c5.208 0.012 30.569999 12.75 56.357999 28.301999 25.799999 15.552 50.999999 29.039999 56.003999 29.976l9.101999 1.703999 4.002-55.997998 3.996-55.997999h119.999998l2.16 177.995996L576.299989 935.999982l-6.15-0.252c-3.39-0.144-13.356-5.832-22.158-12.642z m164.003997-330.695994v-183.599996l-26.003999-19.092c-14.298-10.5-43.139999-28.865999-64.097999-40.799999l-38.099999-21.707999-3.696 10.391999c-2.034 5.718-4.686 31.997999-5.898 58.397999l-2.208 47.999999h-119.999998l-2.154-178.001996c-1.182-97.895998-0.204-177.995997 2.172-177.995997 2.382 0 17.748 8.436 34.158 18.75 43.319999 27.239999 177.449997 104.939998 208.085995 120.545998l26.262 13.379999-5.496 8.898-5.496 8.898 8.466-5.238 8.472-5.232 50.765999 28.686c27.923999 15.78 55.325999 32.471999 60.905999 37.091999l10.139999 8.412-2.142 192.557996-2.135999 192.563996-56.003999 33.756c-30.797999 18.564-60.497999 34.019999-65.999999 34.337999l-9.996 0.588z"  /><path d="M542.249989 917.999982c-11.052-9.9-25.08-19.152-31.169999-20.556-6.096-1.404-43.481999-21.63-83.081998-44.951999s-111.599998-65.537999-159.995997-93.821998L179.999996 707.249986l-2.141999-192.977996-2.142-192.983996 22.139999-15.384c118.073998-82.037998 113.495998-87.497998 114.425998 136.511997l0.792 189.581997 9.462 0.018c5.208 0.012 30.569999 12.75 56.357999 28.301999 25.799999 15.552 50.999999 29.039999 56.003999 29.976l9.101999 1.703999 4.002-55.997998 3.996-55.997999h119.999998l2.16 177.995996L576.299989 935.999982h-6.984c-3.84 0-16.02-8.1-27.072-18z m168.803997-328.001994c-0.522-102.299998-0.522-188.699996 0-191.999996 0.522-3.3-1.752-5.19-5.052-4.2-3.3 0.99-28.949999-11.76-56.999999-28.331999-28.043999-16.572-55.043999-30.881999-59.999999-31.8l-8.999999-1.667999L575.999989 388.001992 571.997989 443.999991h-119.999998l-2.154-178.001996c-1.182-97.895998-0.204-177.995997 2.172-177.995997 2.382 0 17.748 8.436 34.158 18.75 43.319999 27.239999 177.449997 104.939998 208.085995 120.545998l26.262 13.379999-5.496 8.898-5.496 8.898 8.466-5.238 8.472-5.232 50.765999 28.686c27.923999 15.78 55.325999 32.471999 60.905999 37.091999l10.139999 8.412-2.142 192.557996-2.135999 192.563996-56.003999 33.756c-30.797999 18.564-60.497999 34.019999-65.999999 34.337999l-9.996 0.588z"  /><path d="M542.249989 917.999982c-11.052-9.9-25.08-19.146-31.169999-20.55-20.34-4.686-79.079998-42.011999-79.079998-50.261999v-8.129999l-6.45 3.984-6.45 3.983999-119.549998-69.701998L179.999996 707.621986l-2.141999-193.163996-2.142-193.169996 22.139999-15.384c118.073998-82.037998 113.495998-87.497998 114.425998 136.511997l0.792 189.581997 9.462 0.018c5.208 0.012 30.569999 12.75 56.357999 28.301999 25.799999 15.552 50.999999 29.039999 56.003999 29.976l9.101999 1.703999 4.002-55.997998 3.996-55.997999h119.999998l2.16 177.995996L576.299989 935.999982h-6.984c-3.84 0-16.02-8.1-27.072-18z m168.803997-328.001994c-0.522-102.299998-0.522-188.699996 0-191.999996 0.522-3.3-1.752-5.19-5.052-4.2-3.3 0.99-28.949999-11.76-56.999999-28.331999-28.043999-16.572-55.043999-30.881999-59.999999-31.8l-8.999999-1.667999L575.999989 388.001992 571.997989 443.999991h-119.999998l-2.154-178.001996c-1.182-97.895998-0.204-177.995997 2.172-177.995997 2.382 0 17.748 8.436 34.158 18.75 43.319999 27.239999 177.449997 104.939998 208.085995 120.545998l26.262 13.379999-5.496 8.898-5.496 8.898 8.466-5.238 8.472-5.232 50.765999 28.686c27.923999 15.78 55.325999 32.471999 60.905999 37.091999l10.139999 8.412-2.142 192.557996-2.135999 192.563996-56.003999 33.756c-30.797999 18.564-60.497999 34.019999-65.999999 34.337999l-9.996 0.588z"  /><path d="M542.249989 917.999982c-11.052-9.9-25.08-19.146-31.169999-20.55-20.34-4.686-79.079998-42.011999-79.079998-50.261999v-8.129999l-6.45 3.984-6.45 3.983999-119.549998-69.701998L179.999996 707.621986l-2.141999-193.163996-2.142-193.169996 22.139999-15.384c118.073998-82.037998 113.495998-87.497998 114.425998 136.511997l0.792 189.581997 9.462 0.018c5.208 0.012 30.569999 12.75 56.357999 28.301999 25.799999 15.552 50.999999 29.039999 56.003999 29.976l9.101999 1.703999 4.002-55.997998 3.996-55.997999h119.999998l2.16 177.995996L576.299989 935.999982h-6.984c-3.84 0-16.02-8.1-27.072-18z m168.803997-328.001994c-0.522-102.299998-0.522-188.699996 0-191.999996 0.522-3.3-1.752-5.19-5.052-4.2-3.3 0.99-28.949999-11.76-56.999999-28.331999-28.043999-16.572-55.043999-30.881999-59.999999-31.8l-8.999999-1.667999L575.999989 388.001992 571.997989 443.999991h-119.999998l-2.154-178.001996c-1.182-97.895998-0.204-177.995997 2.172-177.995997 2.382 0 17.748 8.436 34.158 18.75 43.319999 27.239999 177.449997 104.939998 208.085995 120.545998l26.262 13.379999-5.496 8.898-5.496 8.898 8.466-5.238 8.472-5.232 50.765999 28.686c27.923999 15.78 55.325999 32.471999 60.905999 37.091999l10.139999 8.412-2.142 192.557996-2.135999 192.563996-56.003999 33.756c-30.797999 18.564-60.497999 34.019999-65.999999 34.337999l-9.996 0.588z"  /><path d="M542.249989 917.999982c-11.052-9.9-25.08-19.146-31.169999-20.55-6.096-1.404-26.381999-11.46-45.077999-22.337999L431.999992 855.323983v-17.987999l-5.016 5.01-5.01 5.015999-22.986-11.885999c-12.642-6.54-22.986-13.722-22.985999-15.96 0-2.244 6.96-0.354 15.473999 4.2 8.508 4.56 18.408 8.16 21.996 7.998 3.594-0.156-2.424-5.238-13.374-11.298-10.944-6.06-22.704-9.276-26.135999-7.158-3.432 2.124-41.957999-16.89-85.619999-42.239999l-79.379998-46.103999 4.758-7.692 4.752-7.692-9.588 5.922-9.582 5.928-11.652-9.672-11.651999-9.666V321.089994L197.999996 305.807994c117.911998-81.923998 113.351998-87.377998 114.281998 136.607997l0.792 189.581997 9.462 0.018c5.208 0.012 30.569999 12.75 56.357999 28.301999 25.799999 15.552 50.999999 29.039999 56.003999 29.976l9.101999 1.703999 4.002-55.997998 3.996-55.997999h119.999998l2.16 177.995996L576.299989 935.999982h-6.984c-3.84 0-16.02-8.1-27.072-18z m168.803997-328.001994c-0.522-102.299998-0.522-188.699996 0-191.999996 0.522-3.3-1.752-5.19-5.052-4.2-3.3 0.99-28.949999-11.76-56.999999-28.331999-28.043999-16.572-55.043999-30.881999-59.999999-31.8l-8.999999-1.667999L575.999989 388.001992 571.997989 443.999991h-119.999998l-2.154-178.001996c-1.182-97.895998-0.204-177.995997 2.172-177.995997 2.382 0 17.748 8.436 34.158 18.75 43.319999 27.239999 177.449997 104.939998 208.085995 120.545998l26.262 13.379999-4.68 7.572-4.674 7.566 13.728-5.268 13.728-5.268-6.594 11.358-6.6 11.364 6.276-5.658 6.276-5.658 33.005999 16.704c18.156 9.18 42.977999 23.718 55.151999 32.297999l22.139999 15.6-2.142 193.019996-2.135999 193.007996-56.003999 33.756c-30.797999 18.564-60.497999 34.019999-65.999999 34.337999l-9.996 0.588z"  /><path d="M542.249989 917.999982c-11.052-9.9-25.08-19.146-31.169999-20.55-6.096-1.404-26.381999-11.46-45.077999-22.337999L431.999992 855.323983v-17.987999l-5.016 5.01-5.01 5.015999-22.986-11.885999c-12.642-6.54-22.986-13.722-22.985999-15.96 0-2.244 6.96-0.354 15.473999 4.2 8.508 4.56 18.408 8.16 21.996 7.998 3.594-0.156-2.424-5.238-13.374-11.298-10.944-6.06-22.704-9.276-26.135999-7.158-3.432 2.124-41.957999-16.89-85.619999-42.239999l-79.379998-46.103999 4.758-7.692 4.752-7.692-9.588 5.922-9.582 5.928-11.652-9.672-11.651999-9.666V321.089994L197.999996 305.807994c117.911998-81.923998 113.351998-87.377998 114.281998 136.607997l0.792 189.581997 9.462 0.018c5.208 0.012 30.569999 12.75 56.357999 28.301999 25.799999 15.552 50.999999 29.039999 56.003999 29.976l9.101999 1.703999 4.002-55.997998 3.996-55.997999h119.999998l2.16 177.995996L576.299989 935.999982h-6.984c-3.84 0-16.02-8.1-27.072-18z m168.803997-328.001994c-0.522-102.299998-0.522-188.699996 0-191.999996 0.522-3.3-1.752-5.19-5.052-4.2-3.3 0.99-28.949999-11.76-56.999999-28.331999-28.043999-16.572-55.043999-30.881999-59.999999-31.8l-8.999999-1.667999L575.999989 388.001992 571.997989 443.999991h-119.999998l-2.154-178.001996c-1.182-97.895998-0.204-177.995997 2.172-177.995997 2.382 0 17.748 8.436 34.158 18.75 43.319999 27.239999 177.449997 104.939998 208.085995 120.545998l26.262 13.379999-4.68 7.572-4.674 7.566 13.728-5.268 13.728-5.268-6.594 11.358-6.6 11.364 6.276-5.658 6.276-5.658 33.005999 16.704c18.156 9.18 42.977999 23.718 55.151999 32.297999l22.139999 15.6-2.142 193.019996-2.135999 193.007996-56.003999 33.756c-30.797999 18.564-60.497999 34.019999-65.999999 34.337999l-9.996 0.588z"  /><path d="M542.249989 917.999982c-11.052-9.9-25.08-19.146-31.169999-20.55-6.096-1.404-26.381999-11.46-45.077999-22.337999L431.999992 855.323983v-17.987999l-5.016 5.01-5.01 5.015999-22.986-11.885999c-12.642-6.54-22.986-13.722-22.985999-15.96 0-2.244 6.96-0.354 15.473999 4.2 8.508 4.56 18.408 8.16 21.996 7.998 3.594-0.156-2.424-5.238-13.374-11.298-10.944-6.06-22.704-9.276-26.135999-7.158-3.432 2.124-41.957999-16.89-85.619999-42.239999l-79.379998-46.103999 4.758-7.692 4.752-7.692-9.588 5.922-9.582 5.928-11.652-9.672-11.651999-9.666V321.089994L197.999996 305.807994c117.911998-81.923998 113.351998-87.377998 114.281998 136.607997l0.792 189.581997 9.462 0.018c5.208 0.012 30.569999 12.75 56.357999 28.301999 25.799999 15.552 50.999999 29.039999 56.003999 29.976l9.101999 1.703999 4.002-55.997998 3.996-55.997999h119.999998l2.16 177.995996L576.299989 935.999982h-6.984c-3.84 0-16.02-8.1-27.072-18z m169.751997-325.997994c0-215.639996 4.62-190.835996-40.001999-214.415995-19.8-10.458-47.699999-26.189999-61.997999-34.956l-26.003999-15.935999-3.792 10.655999c-2.088 5.856-4.788 32.249999-6 58.649999l-2.208 47.999999h-119.999998l-2.154-178.001996c-1.182-97.895998-0.204-177.995997 2.172-177.995997 2.382 0 17.748 8.436 34.158 18.75 43.319999 27.239999 177.449997 104.939998 208.085995 120.545998l26.262 13.379999-4.68 7.572-4.674 7.566 13.728-5.268 13.728-5.268-6.594 11.358-6.6 11.364 6.276-5.658 6.276-5.658 33.005999 16.704c18.156 9.18 42.977999 23.718 55.151999 32.297999l22.139999 15.6-2.142 193.019996-2.135999 193.007996-56.003999 33.756c-30.797999 18.564-60.497999 34.019999-65.999999 34.337999l-9.996 0.588z"  /><path d="M542.249989 917.999982c-11.052-9.9-25.08-19.146-31.169999-20.55-6.096-1.404-26.381999-11.46-45.077999-22.337999L431.999992 855.323983v-17.987999l-5.016 5.01-5.01 5.015999-22.986-11.885999c-12.642-6.54-22.986-13.722-22.985999-15.96 0-2.244 6.96-0.354 15.473999 4.2 8.508 4.56 18.408 8.16 21.996 7.998 3.594-0.156-2.424-5.238-13.374-11.298-10.944-6.06-22.68-9.3-26.069999-7.2-3.396 2.1-38.495999-14.832-77.999999-37.631999l-71.819998-41.453999 4.314-6.972 4.307999-6.972-13.727999 5.268-13.728 5.268 6.552-10.596 6.546-10.596-9.588 5.922-9.582 5.928-11.652-9.672-11.651999-9.666V321.089994L197.999996 305.807994c117.911998-81.923998 113.351998-87.377998 114.281998 136.607997l0.792 189.581997 9.462 0.018c5.208 0.012 30.569999 12.75 56.357999 28.301999 25.799999 15.552 50.999999 29.039999 56.003999 29.976l9.101999 1.703999 4.002-55.997998 3.996-55.997999h119.999998l2.16 177.995996L576.299989 935.999982h-6.984c-3.84 0-16.02-8.1-27.072-18z m169.751997-325.997994c0-215.639996 4.62-190.835996-40.001999-214.415995-19.8-10.458-47.699999-26.189999-61.997999-34.956l-26.003999-15.935999-3.792 10.655999c-2.088 5.856-4.788 32.249999-6 58.649999l-2.208 47.999999h-119.999998l-2.154-178.001996-2.148-177.995997h4.92c2.7 0 14.472 6.726 26.148 14.952 11.682 8.226 36.659999 22.764 55.517999 32.309999l34.283999 17.352-5.52 8.928-5.52 8.928 9.324-5.76 9.324-5.76 49.913999 30.035999c27.449999 16.518 52.559999 33.851999 55.787999 38.52 3.234 4.674 5.934 5.664 6 2.208l0.12-6.276 16.229999 8.681999 16.224 8.682-5.46 8.832-5.46 8.838 8.466-5.238 8.472-5.232 50.765999 28.686c27.923999 15.78 55.265999 32.417999 60.767999 36.977999l9.995999 8.292V702.041986l-11.645999 9.666-11.652 9.672-9.588-5.928-9.582-5.922 4.908 7.944 4.914 7.944-31.679999 17.801999-31.674 17.802-0.24-6.51c-0.138-3.582-3.912-0.21-8.4 7.488l-8.153999 13.998h-23.202z"  /><path d="M542.249989 917.999982c-11.052-9.9-25.08-19.146-31.169999-20.55-6.096-1.404-26.381999-11.46-45.077999-22.337999L431.999992 855.323983v-17.987999l-5.016 5.01-5.01 5.015999-22.986-11.885999c-12.642-6.54-22.986-13.722-22.985999-15.96 0-2.244 6.96-0.354 15.473999 4.2 8.508 4.56 18.408 8.16 21.996 7.998 3.594-0.156-2.424-5.238-13.374-11.298-10.944-6.06-22.686-9.288-26.093999-7.182-3.408 2.106-25.955999-7.476-50.099999-21.287999l-43.901999-25.122v-17.49l-5.016 5.016-5.016 5.01-23.244-12.018-23.249999-12.023999 4.68-7.566 4.679999-7.566-13.733999 5.268-13.728 5.268 6.552-10.596 6.546-10.596-9.588 5.922-9.582 5.928-11.652-9.672-11.651999-9.666V321.089994L197.999996 305.807994c117.911998-81.923998 113.351998-87.377998 114.281998 136.607997l0.792 189.581997 9.462 0.018c5.208 0.012 30.569999 12.75 56.357999 28.301999 25.799999 15.552 50.999999 29.039999 56.003999 29.976l9.101999 1.703999 4.002-55.997998 3.996-55.997999h119.999998l2.16 177.995996L576.299989 935.999982h-6.984c-3.84 0-16.02-8.1-27.072-18z m169.751997-325.997994c0-215.639996 4.62-190.835996-40.001999-214.415995-19.8-10.458-47.699999-26.189999-61.997999-34.956l-26.003999-15.935999-3.792 10.655999c-2.088 5.856-4.788 32.249999-6 58.649999l-2.208 47.999999h-119.999998l-2.154-178.001996-2.148-177.995997h4.92c2.7 0 14.472 6.726 26.148 14.952 11.682 8.226 36.659999 22.764 55.517999 32.309999l34.283999 17.352-5.52 8.928-5.52 8.928 9.324-5.76 9.324-5.76 49.913999 30.035999c27.449999 16.518 52.559999 33.851999 55.787999 38.52 3.234 4.674 5.934 5.664 6 2.208l0.12-6.276 16.229999 8.681999 16.224 8.682-5.46 8.832-5.46 8.838 8.466-5.238 8.472-5.232 50.765999 28.686c27.923999 15.78 55.265999 32.417999 60.767999 36.977999l9.995999 8.292V702.041986l-11.645999 9.666-11.652 9.672-9.588-5.928-9.582-5.922 4.908 7.944 4.914 7.944-31.679999 17.801999-31.674 17.802-0.24-6.51c-0.138-3.582-3.912-0.21-8.4 7.488l-8.153999 13.998h-23.202z"  /><path d="M542.249989 917.999982c-11.052-9.9-25.08-19.146-31.169999-20.55-6.096-1.404-26.381999-11.46-45.077999-22.337999L431.999992 855.323983v-17.987999l-5.016 5.01-5.01 5.015999-22.986-11.885999c-12.642-6.54-22.986-13.722-22.985999-15.96 0-2.244 6.96-0.354 15.473999 4.2 8.508 4.56 18.408 8.16 21.996 7.998 3.594-0.156-2.424-5.238-13.374-11.298-10.944-6.06-22.686-9.288-26.093999-7.182-3.408 2.106-25.955999-7.476-50.099999-21.287999l-43.901999-25.122v-17.49l-5.016 5.016-5.016 5.01-23.244-12.018-23.249999-12.023999 4.68-7.566 4.679999-7.566-13.733999 5.268-13.728 5.268 6.552-10.596 6.546-10.596-9.588 5.922-9.582 5.928-11.652-9.672-11.651999-9.666V321.089994L197.999996 305.807994c117.911998-81.923998 113.351998-87.377998 114.281998 136.607997l0.792 189.581997 9.462 0.018c5.208 0.012 30.569999 12.75 56.357999 28.301999 25.799999 15.552 50.999999 29.039999 56.003999 29.976l9.101999 1.703999 4.002-55.997998 3.996-55.997999h119.999998l2.16 177.995996L576.299989 935.999982h-6.984c-3.84 0-16.02-8.1-27.072-18z m169.751997-325.997994c0-215.639996 4.62-190.835996-40.001999-214.415995-19.8-10.458-47.699999-26.189999-61.997999-34.956l-26.003999-15.935999-3.792 10.655999c-2.088 5.856-4.788 32.249999-6 58.649999l-2.208 47.999999h-119.999998l-2.154-178.001996-2.148-177.995997h4.92c2.7 0 14.472 6.726 26.148 14.952 11.682 8.226 36.659999 22.764 55.517999 32.309999l34.283999 17.352-5.52 8.928-5.52 8.928 9.324-5.76 9.324-5.76 49.913999 30.035999c27.449999 16.518 52.559999 33.851999 55.787999 38.52 3.234 4.674 5.934 5.664 6 2.208l0.12-6.276 16.229999 8.681999 16.224 8.682-5.46 8.832-5.46 8.838 8.466-5.238 8.472-5.232 50.765999 28.686c27.923999 15.78 55.265999 32.417999 60.767999 36.977999l9.995999 8.292V702.041986l-11.645999 9.666-11.652 9.672-9.588-5.928-9.582-5.922 4.908 7.944 4.914 7.944-31.679999 17.801999-31.674 17.802-0.24-6.51c-0.138-3.582-3.912-0.21-8.4 7.488l-8.153999 13.998h-23.202z"  /><path d="M542.249989 917.999982c-11.052-9.9-25.08-19.146-31.169999-20.55-6.096-1.404-26.381999-11.46-45.077999-22.337999L431.999992 855.323983v-17.987999l-5.016 5.01-5.01 5.015999-22.986-11.885999c-12.642-6.54-22.986-13.722-22.985999-15.96 0-2.244 6.96-0.354 15.473999 4.2 8.508 4.56 18.408 8.16 21.996 7.998 3.594-0.156-2.292-5.16-13.068-11.136l-19.595999-10.848-10.404 3.99-10.404 3.99v-7.518c0-4.14-4.5-7.608-10.002-7.704-15.48-0.282-69.995999-35.027999-69.995998-44.609999v-8.544l-5.016 5.016-5.016 5.01-23.244-12.018-23.249999-12.023999 4.68-7.566 4.679999-7.566-13.733999 5.268-13.728 5.268 6.552-10.596 6.546-10.596-9.588 5.922-9.582 5.928-11.652-9.672-11.651999-9.666V321.089994L197.999996 305.807994c117.911998-81.923998 113.351998-87.377998 114.281998 136.607997l0.792 189.581997 9.462 0.018c5.208 0.012 30.569999 12.75 56.357999 28.301999 25.799999 15.552 50.999999 29.039999 56.003999 29.976l9.101999 1.703999 4.002-55.997998 3.996-55.997999h119.999998l2.16 177.995996L576.299989 935.999982h-6.984c-3.84 0-16.02-8.1-27.072-18z m169.751997-325.997994c0-215.639996 4.62-190.835996-40.001999-214.415995-19.8-10.458-46.907999-25.697999-60.239999-33.864l-24.233999-14.843999-7.764 5.561999-7.764 5.562V443.999991h-119.999998l-2.154-178.001996-2.148-177.995997h4.92c2.7 0 14.472 6.726 26.148 14.952 11.682 8.226 36.659999 22.764 55.517999 32.309999l34.283999 17.352-5.52 8.928-5.52 8.928 9.324-5.76 9.324-5.76 49.913999 30.035999c27.449999 16.518 52.559999 33.851999 55.787999 38.52 3.234 4.674 5.934 5.664 6 2.208l0.12-6.276 16.229999 8.681999 16.224 8.682-5.46 8.832-5.46 8.838 8.466-5.238 8.472-5.232 50.765999 28.686c27.923999 15.78 55.265999 32.417999 60.767999 36.977999l9.995999 8.292V702.041986l-11.645999 9.666-11.652 9.672-9.588-5.928-9.582-5.922 4.908 7.944 4.914 7.944-31.679999 17.801999-31.674 17.802-0.24-6.51c-0.138-3.582-3.912-0.21-8.4 7.488l-8.153999 13.998h-23.202z"  /><path d="M542.249989 917.999982c-11.052-9.9-25.08-19.146-31.169999-20.55-6.096-1.404-26.381999-11.46-45.077999-22.337999L431.999992 855.323983v-17.987999l-5.016 5.01-5.01 5.015999-22.986-11.885999c-12.642-6.54-22.986-13.722-22.985999-15.96 0-2.244 6.96-0.354 15.473999 4.2 8.508 4.56 18.408 8.16 21.996 7.998 3.594-0.156-2.292-5.16-13.068-11.136l-19.595999-10.848-10.404 3.99-10.404 3.99v-7.518c0-4.14-4.5-7.608-10.002-7.704-15.48-0.282-69.995999-35.027999-69.995998-44.609999v-8.544l-5.016 5.016-5.016 5.01-23.244-12.018-23.249999-12.023999 4.68-7.566 4.679999-7.566-13.733999 5.268-13.728 5.268 6.552-10.596 6.546-10.596-9.588 5.922-9.582 5.928-11.652-9.672-11.651999-9.666V321.089994L197.999996 305.807994c117.911998-81.923998 113.351998-87.377998 114.281998 136.607997l0.792 189.581997 9.462 0.018c5.208 0.012 30.569999 12.75 56.357999 28.301999 25.799999 15.552 50.999999 29.039999 56.003999 29.976l9.101999 1.703999 4.002-55.997998 3.996-55.997999h119.999998l2.16 177.995996L576.299989 935.999982h-6.984c-3.84 0-16.02-8.1-27.072-18z m169.751997-325.997994c0-215.639996 4.62-190.835996-40.001999-214.415995-19.8-10.458-46.907999-25.697999-60.239999-33.864l-24.233999-14.843999-7.764 5.561999-7.764 5.562V443.999991h-119.999998l-2.154-178.001996-2.148-177.995997h4.92c2.7 0 14.472 6.726 26.148 14.952 11.682 8.226 36.659999 22.764 55.517999 32.309999l34.283999 17.352-5.088 8.226-5.082 8.226 10.8-1.482c5.94-0.816 15.516-1.056 21.275999-0.534l10.47 0.948-5.754 10.002-5.754 9.995999 6.3-5.676 6.3-5.681999 22.98 11.879999c25.536 13.206 30.647999 21.444 8.988 14.472l-14.004-4.5 11.28 8.016 11.273999 8.01 10.722-4.116 10.728-4.116v18.66l7.998-4.944 7.998-4.944 0.636 14.472 0.63 14.471999 4.014-9.936 4.014-9.935999 15.575999 8.339999 15.582 8.334-5.46 8.832-5.46 8.838 8.16-5.046 8.166-5.046 45.149999 24.45 45.143999 24.449999-5.31 8.598-5.31 8.592 9.582-5.922 9.588-5.928 11.652 9.666 11.645999 9.672V702.041986l-11.645999 9.666-11.652 9.672-9.588-5.928-9.582-5.922 4.908 7.944 4.914 7.944-31.679999 17.801999-31.674 17.802-0.24-6.51c-0.138-3.582-3.912-0.21-8.4 7.488l-8.153999 13.998h-23.202z"  /><path d="M542.249989 917.999982c-11.052-9.9-25.08-19.146-31.169999-20.55-6.096-1.404-26.381999-11.46-45.077999-22.337999L431.999992 855.323983v-17.987999l-5.016 5.01-5.01 5.015999-22.986-11.885999c-12.642-6.54-22.986-13.722-22.985999-15.96 0-2.244 6.96-0.354 15.473999 4.2 8.508 4.56 18.408 8.16 21.996 7.998 3.594-0.156-2.292-5.16-13.068-11.136l-19.595999-10.848-10.404 3.99-10.404 3.99v-7.518c0-4.14-4.5-7.608-10.002-7.704-15.48-0.282-69.995999-35.027999-69.995998-44.609999v-8.544l-5.016 5.016-5.016 5.01-23.244-12.018-23.249999-12.023999 4.68-7.566 4.679999-7.566-13.733999 5.268-13.728 5.268 6.552-10.596 6.546-10.596-9.588 5.922-9.582 5.928-11.652-9.672-11.651999-9.666V321.089994L197.999996 305.807994c117.911998-81.923998 113.351998-87.377998 114.281998 136.607997l0.792 189.581997 9.462 0.018c5.208 0.012 30.569999 12.75 56.357999 28.301999 25.799999 15.552 50.999999 29.039999 56.003999 29.976l9.101999 1.703999 4.002-55.997998 3.996-55.997999h119.999998l2.16 177.995996L576.299989 935.999982h-6.984c-3.84 0-16.02-8.1-27.072-18z m169.751997-325.997994c0-215.639996 4.62-190.835996-40.001999-214.415995-19.8-10.458-46.907999-25.697999-60.239999-33.864l-24.233999-14.843999-7.764 5.561999-7.764 5.562V443.999991h-119.999998l-2.154-178.001996-2.148-177.995997h4.92c2.7 0 14.472 6.726 26.148 14.952 11.682 8.226 36.659999 22.764 55.517999 32.309999l34.283999 17.352-4.458 7.206-4.452 7.212 14.172-0.798c7.794-0.432 27.671999 7.338 44.171999 17.279999 32.933999 19.83 40.511999 30.137999 12 16.32l-18-8.718 14.778 11.892 14.777999 11.892 11.22-4.308 11.22-4.308v18.66l8.004-4.944 7.998-4.944 0.636 14.472 0.63 14.471999 4.014-9.936 4.014-9.935999 15.575999 8.339999 15.582 8.334-5.46 8.832-5.46 8.838 8.16-5.046 8.166-5.046 45.149999 24.45 45.143999 24.449999-5.31 8.598-5.31 8.592 9.582-5.922 9.588-5.928 11.652 9.666 11.645999 9.672V702.041986l-11.645999 9.666-11.652 9.672-9.588-5.928-9.582-5.922 4.908 7.944 4.914 7.944-31.679999 17.801999-31.674 17.802-0.24-6.51c-0.138-3.582-3.912-0.21-8.4 7.488l-8.153999 13.998h-23.202z"  /><path d="M542.249989 917.999982c-11.052-9.9-25.08-19.146-31.169999-20.55-6.096-1.404-26.381999-11.46-45.077999-22.337999L431.999992 855.323983v-17.987999l-5.016 5.01-5.01 5.015999-22.986-11.885999c-12.642-6.54-22.986-13.722-22.985999-15.96 0-2.244 6.96-0.354 15.473999 4.2 8.508 4.56 18.408 8.16 21.996 7.998 3.594-0.156-2.292-5.16-13.068-11.136l-19.595999-10.848-10.404 3.99-10.404 3.99v-7.518c0-4.14-4.5-7.608-10.002-7.704-15.48-0.282-69.995999-35.027999-69.995998-44.609999v-8.544l-5.016 5.016-5.016 5.01-23.244-12.018-23.249999-12.023999 4.68-7.566 4.679999-7.566-13.733999 5.268-13.728 5.268 6.552-10.596 6.546-10.596-9.588 5.922-9.582 5.928-11.652-9.672-11.651999-9.666V321.089994L197.999996 305.807994c117.911998-81.923998 113.351998-87.377998 114.281998 136.607997l0.792 189.581997 9.462 0.018c5.208 0.012 30.569999 12.75 56.357999 28.301999 25.799999 15.552 50.999999 29.039999 56.003999 29.976l9.101999 1.703999 4.002-55.997998 3.996-55.997999h119.999998l2.16 177.995996L576.299989 935.999982h-6.984c-3.84 0-16.02-8.1-27.072-18z m169.751997-325.997994c0-215.639996 4.62-190.835996-40.001999-214.415995-19.8-10.458-46.907999-25.697999-60.239999-33.864l-24.233999-14.843999-7.764 5.561999-7.764 5.562V443.999991h-119.999998l-2.154-178.001996-2.148-177.995997h4.92c2.7 0 14.472 6.726 26.148 14.952 11.682 8.226 36.659999 22.764 55.517999 32.309999l34.283999 17.352-4.458 7.206-4.452 7.212 14.172-0.798c7.794-0.432 27.671999 7.338 44.171999 17.279999 32.933999 19.83 40.511999 30.137999 12 16.32l-18-8.718 14.778 11.892 14.777999 11.892 11.22-4.308 11.22-4.308v18.66l8.004-4.944 7.998-4.944 0.636 14.472 0.63 14.471999 4.014-9.936 4.014-9.935999 15.575999 8.339999 15.582 8.334-5.46 8.832-5.46 8.838 8.16-5.046 8.166-5.046 45.149999 24.45 45.143999 24.449999-5.31 8.598-5.31 8.592 9.582-5.922 9.588-5.928 11.652 9.666 11.645999 9.672V702.041986l-11.645999 9.666-11.652 9.672-9.588-5.928-9.582-5.922 4.908 7.944 4.914 7.944-31.679999 17.801999-31.674 17.802-0.24-6.51c-0.138-3.582-3.912-0.21-8.4 7.488l-8.153999 13.998h-23.202z"  /><path d="M542.249989 917.999982c-11.052-9.9-25.08-19.146-31.169999-20.55-6.096-1.404-26.381999-11.46-45.077999-22.337999L431.999992 855.323983v-17.987999l-5.016 5.01-5.01 5.015999-22.986-11.885999c-12.642-6.54-22.986-13.722-22.985999-15.96 0-2.244 6.96-0.354 15.473999 4.2 8.508 4.56 18.408 8.16 21.996 7.998 3.594-0.156-2.292-5.16-13.068-11.136l-19.595999-10.848-10.404 3.99-10.404 3.99v-7.518c0-4.14-4.5-7.608-10.002-7.704-15.48-0.282-69.995999-35.027999-69.995998-44.609999v-8.544l-5.016 5.016-5.016 5.01-23.244-12.018-23.249999-12.023999 4.68-7.566 4.679999-7.566-13.733999 5.268-13.728 5.268 6.552-10.596 6.546-10.596-9.588 5.922-9.582 5.928-11.652-9.672-11.651999-9.666V321.089994L197.999996 305.807994c117.911998-81.923998 113.351998-87.377998 114.281998 136.607997l0.792 189.581997 9.462 0.018c5.208 0.012 30.569999 12.75 56.357999 28.301999 25.799999 15.552 50.999999 29.039999 56.003999 29.976l9.101999 1.703999 4.002-55.997998 3.996-55.997999h119.999998l2.16 177.995996L576.299989 935.999982h-6.984c-3.84 0-16.02-8.1-27.072-18z m169.751997-325.997994c0-215.639996 4.62-190.835996-40.001999-214.415995-19.8-10.458-46.907999-25.697999-60.239999-33.864l-24.233999-14.843999-7.764 5.561999-7.764 5.562V443.999991h-119.999998l-2.154-178.001996-2.148-177.995997h4.92c2.7 0 14.472 6.726 26.148 14.952 11.682 8.226 36.659999 22.764 55.517999 32.309999l34.283999 17.352-4.458 7.206-4.452 7.212 14.172-0.798c7.794-0.432 27.671999 7.338 44.171999 17.279999 32.933999 19.83 40.511999 30.137999 12 16.32l-18-8.718 14.778 11.892 14.777999 11.892 11.22-4.308 11.22-4.308v18.66l8.004-4.944 7.998-4.944 0.636 14.472 0.63 14.471999 4.014-9.936 4.014-9.935999 15.575999 8.339999 15.582 8.334-5.46 8.832-5.46 8.838 8.16-5.046 8.166-5.046 45.149999 24.45 45.143999 24.449999-5.31 8.598-5.31 8.592 9.582-5.922 9.588-5.928 11.652 9.666 11.645999 9.672V702.041986l-11.645999 9.666-11.652 9.672-9.588-5.928-9.582-5.922 4.908 7.944 4.914 7.944-31.679999 17.801999-31.674 17.802-0.24-6.51c-0.138-3.582-3.912-0.21-8.4 7.488l-8.153999 13.998h-23.202z"  /><path d="M542.249989 917.999982c-11.052-9.9-25.08-19.146-31.169999-20.55-6.096-1.404-26.381999-11.46-45.077999-22.337999L431.999992 855.323983v-17.987999l-5.016 5.01-5.01 5.015999-22.986-11.885999c-12.642-6.54-22.986-13.722-22.985999-15.96 0-2.244 6.96-0.354 15.473999 4.2 8.508 4.56 18.408 8.16 21.996 7.998 3.594-0.156-2.292-5.16-13.068-11.136l-19.595999-10.848-10.404 3.99-10.404 3.99v-7.518c0-4.14-4.5-7.608-10.002-7.704-15.48-0.282-69.995999-35.027999-69.995998-44.609999v-8.544l-5.016 5.016-5.016 5.01-23.244-12.018-23.249999-12.023999 4.68-7.566 4.679999-7.566-13.733999 5.268-13.728 5.268 6.552-10.596 6.546-10.596-9.588 5.922-9.582 5.928-11.652-9.672-11.651999-9.666V321.089994L197.999996 305.807994c117.911998-81.923998 113.351998-87.377998 114.281998 136.607997l0.792 189.581997 9.462 0.018c5.208 0.012 30.569999 12.75 56.357999 28.301999 25.799999 15.552 50.999999 29.039999 56.003999 29.976l9.101999 1.703999 4.002-55.997998 3.996-55.997999h119.999998l2.16 177.995996L576.299989 935.999982h-6.984c-3.84 0-16.02-8.1-27.072-18z m168.803997-328.001994c-0.522-102.299998-0.522-188.699996 0-191.999996 0.522-3.3-2.946-6-7.71-6-4.758 0-30.767999-12.96-57.803999-28.799999-27.035999-15.846-54.635999-29.873999-61.343998-31.163999l-12.198-2.358V443.999991h-119.999998l-2.154-178.001996-2.148-177.995997h4.92c2.7 0 14.472 6.726 26.148 14.952 11.682 8.226 36.659999 22.764 55.517999 32.309999l34.283999 17.352-4.458 7.206-4.452 7.212 14.172-0.798c7.794-0.432 27.671999 7.338 44.171999 17.279999 32.933999 19.83 40.511999 30.137999 12 16.32l-18-8.718 14.778 11.892 14.777999 11.892 11.22-4.308 11.22-4.308v18.66l8.004-4.944 7.998-4.944 0.636 14.472 0.63 14.471999 4.014-9.936 4.014-9.935999 15.575999 8.339999 15.582 8.334-5.46 8.832-5.46 8.838 8.16-5.046 8.166-5.046 45.149999 24.45 45.143999 24.449999-5.31 8.598-5.31 8.592 9.582-5.922 9.588-5.928 11.652 9.666 11.645999 9.672V702.041986l-11.645999 9.666-11.652 9.672-9.588-5.928-9.582-5.922 4.908 7.944 4.914 7.944-31.679999 17.801999-31.674 17.802-0.24-6.51c-0.138-3.582-3.912-0.21-8.4 7.488l-8.153999 13.998h-23.202z"  /><path d="M559.049989 929.999982c-0.516-3.3-0.564-8.568-0.096-11.712l0.852-5.712-11.832 4.542-11.837999 4.542-4.908-12.78c-2.7-7.038-7.452-11.22-10.56-9.294-3.114 1.92-24.336-7.17-47.159999-20.207999L431.999992 855.677983v-18.341999l-5.016 5.01-5.01 5.015999-22.986-11.885999c-12.642-6.54-22.986-13.722-22.985999-15.96 0-2.244 6.96-0.354 15.473999 4.2 8.508 4.56 18.408 8.16 21.996 7.998 3.594-0.156-2.292-5.16-13.068-11.136l-19.595999-10.848-10.404 3.99-10.404 3.99v-7.518c0-4.14-4.5-7.608-10.002-7.704-15.48-0.282-69.995999-35.027999-69.995998-44.609999v-8.544l-5.016 5.016-5.016 5.01-23.244-12.018-23.249999-12.023999 4.68-7.566 4.679999-7.566-13.733999 5.268-13.728 5.268 6.552-10.596 6.546-10.596-9.588 5.922-9.582 5.928-11.652-9.672-11.651999-9.666V321.959994l11.651999-9.672 11.652-9.66 9.582 5.922 9.588 5.922-5.31-8.592-5.31-8.598 45.491999-24.641999c25.02-13.554 48.329999-24.642 51.791999-24.642h6.3l2.28 188.009996 2.28 188.003997-7.998 3.36-7.998 3.36 16.002 0.774c18.51 0.888 94.205998 43.619999 88.097998 49.727999-2.256 2.256 0.402 4.242 5.898 4.416 5.502 0.174 15.402 1.674 22.002 3.33l11.999999 3.017999 4.002-55.997998 3.996-55.997999h119.999998l2.16 177.995996L576.299989 935.999982h-8.154c-4.482 0-8.58-2.7-9.102-6z m152.003997-340.001994c-0.522-102.299998-0.378-190.439996 0.318-195.869996l1.272-9.87-13.632 5.232-13.637999 5.232 6.551999-10.596 6.546-10.595999-8.669999 5.358-8.676 5.357999-42.239999-24.899999c-23.238-13.704-47.789999-25.979999-54.563999-27.287999l-12.324-2.382V443.999991h-119.999998l-2.154-178.715996-2.154-178.721997 10.158 3.72 10.152 3.72-2.196 9.594-2.202 9.594 9.414-5.82 9.414-5.82 10.781999 14.76c5.934 8.112 10.788 12.186 10.788 9.06 0-3.132 14.526 1.716 32.28 10.775999l32.279999 16.47-4.452 7.206-4.452 7.212 14.172-0.798c7.794-0.432 27.671999 7.338 44.171999 17.279999 30.899999 18.606 42.077999 31.511999 14.526 16.764-8.508-4.554-18.408-8.136-22.002-7.962-3.588 0.18 3.462 5.736 15.666 12.36l22.187999 12.03 7.812-4.824 7.812-4.83v17.886l7.086-4.38 7.092-4.38 4.164 15.911999 4.158 15.906 10.751999-0.63 10.746-0.63-10.002-4.038c-5.496-2.22-9.996-7.458-9.995999-11.646v-7.619999l16.223999 8.687999 16.224 8.682-5.46 8.832-5.46 8.838 8.16-5.046 8.166-5.046 45.149999 24.45 45.143999 24.449999-5.31 8.598-5.31 8.592 9.582-5.922 9.588-5.928 11.652 9.666 11.645999 9.672V702.041986l-11.645999 9.666-11.652 9.672-9.588-5.928-9.582-5.922 4.908 7.944 4.914 7.944-31.679999 17.801999-31.674 17.802-0.24-6.51c-0.138-3.582-3.912-0.21-8.4 7.488l-8.153999 13.998h-23.202z"  /><path d="M559.049989 929.999982c-0.516-3.3-0.432-8.97 0.198-12.6l1.146-6.588-9.408 5.82-9.414 5.814-10.787999-14.754c-5.928-8.112-10.782-12.186-10.782-9.06 0 3.132-14.532-1.716-32.28-10.775999l-32.285999-16.47 5.52-8.928 5.52-8.928-10.452 6.456-10.452 6.456-10.787999-14.748c-5.928-8.112-10.782-12.174-10.782-9.017999s-10.8 0.15-24-6.678c-13.2-6.822-24-14.244-23.999999-16.482 0-2.244 6.96-0.354 15.473999 4.2 8.508 4.56 18.408 8.16 21.996 7.998 3.594-0.156-2.292-5.16-13.068-11.136l-19.595999-10.848-10.404 3.99-10.404 3.99v-7.518c0-4.14-4.5-7.608-10.002-7.704-15.48-0.282-69.995999-35.027999-69.995998-44.609999v-8.544l-5.016 5.016-5.016 5.01-23.244-12.018-23.249999-12.023999 4.68-7.566 4.679999-7.566-13.733999 5.268-13.728 5.268 6.552-10.596 6.546-10.596-9.588 5.922-9.582 5.928-11.652-9.672-11.651999-9.666V321.959994l11.651999-9.672 11.652-9.66 9.582 5.922 9.588 5.922-5.31-8.592-5.31-8.598 45.491999-24.641999c25.02-13.554 48.329999-24.642 51.791999-24.642h6.3l2.28 188.009996 2.28 188.003997-7.998 3.36-7.998 3.36 16.002 0.774c18.51 0.888 94.205998 43.619999 88.097998 49.727999-2.256 2.256 0.402 4.242 5.898 4.416 5.502 0.174 15.402 1.674 22.002 3.33l11.999999 3.017999 4.002-55.997998 3.996-55.997999h119.999998l2.16 177.995996L576.299989 935.999982h-8.154c-4.482 0-8.58-2.7-9.102-6z m152.003997-340.001994c-0.522-102.299998-0.378-190.439996 0.318-195.869996l1.272-9.87-13.632 5.232-13.637999 5.232 6.551999-10.596 6.546-10.595999-8.669999 5.358-8.676 5.357999-42.239999-24.899999c-23.238-13.704-47.789999-25.979999-54.563999-27.287999l-12.324-2.382V443.999991h-119.999998l-2.154-178.715996-2.154-178.721997 10.158 3.72 10.152 3.72-2.196 9.594-2.202 9.594 9.414-5.82 9.414-5.82 10.781999 14.76c5.934 8.112 10.788 12.186 10.788 9.06 0-3.132 14.526 1.716 32.28 10.775999l32.279999 16.47-4.452 7.206-4.452 7.212 14.172-0.798c7.794-0.432 27.671999 7.338 44.171999 17.279999 30.899999 18.606 42.077999 31.511999 14.526 16.764-8.508-4.554-18.408-8.136-22.002-7.962-3.588 0.18 3.462 5.736 15.666 12.36l22.187999 12.03 7.812-4.824 7.812-4.83v17.886l7.086-4.38 7.092-4.38 4.164 15.911999 4.158 15.906 10.751999-0.63 10.746-0.63-10.002-4.038c-5.496-2.22-9.996-7.458-9.995999-11.646v-7.619999l16.223999 8.687999 16.224 8.682-5.46 8.832-5.46 8.838 8.16-5.046 8.166-5.046 45.149999 24.45 45.143999 24.449999-5.31 8.598-5.31 8.592 9.582-5.922 9.588-5.928 11.652 9.666 11.645999 9.672V702.041986l-11.645999 9.666-11.652 9.672-9.588-5.928-9.582-5.922 4.908 7.944 4.914 7.944-31.679999 17.801999-31.674 17.802-0.24-6.51c-0.138-3.582-3.912-0.21-8.4 7.488l-8.153999 13.998h-23.202z"  /><path d="M559.049989 929.999982c-0.516-3.3-0.432-8.97 0.198-12.6l1.146-6.588-9.408 5.82-9.414 5.814-10.787999-14.754c-5.928-8.112-10.782-12.186-10.782-9.06 0 3.132-14.532-1.716-32.28-10.775999l-32.285999-16.47 5.52-8.928 5.52-8.928-10.452 6.456-10.452 6.456-10.787999-14.748c-5.928-8.112-10.782-12.174-10.782-9.017999s-10.8 0.15-24-6.678c-13.2-6.822-24-14.244-23.999999-16.482 0-2.244 6.96-0.354 15.473999 4.2 8.508 4.56 18.408 8.16 21.996 7.998 3.594-0.156-2.292-5.16-13.068-11.136l-19.595999-10.848-10.404 3.99-10.404 3.99v-7.518c0-4.14-4.5-7.608-10.002-7.704-15.48-0.282-69.995999-35.027999-69.995998-44.609999v-8.544l-5.016 5.016-5.016 5.01-23.244-12.018-23.249999-12.023999 4.68-7.566 4.679999-7.566-13.733999 5.268-13.728 5.268 6.552-10.596 6.546-10.596-9.588 5.922-9.582 5.928-11.652-9.672-11.651999-9.666V321.959994l11.651999-9.672 11.652-9.66 9.582 5.922 9.588 5.922-5.31-8.592-5.31-8.598 45.491999-24.641999c25.02-13.554 48.329999-24.642 51.791999-24.642h6.3l2.28 188.009996 2.28 188.003997-7.998 3.36-7.998 3.36 16.002 0.774c18.51 0.888 94.205998 43.619999 88.097998 49.727999-2.256 2.256 0.402 4.242 5.898 4.416 5.502 0.174 15.402 1.674 22.002 3.33l11.999999 3.017999 4.002-55.997998 3.996-55.997999h119.999998l2.16 177.995996L576.299989 935.999982h-8.154c-4.482 0-8.58-2.7-9.102-6z m152.003997-340.001994c-0.522-102.299998-0.378-190.439996 0.318-195.869996l1.272-9.87-13.632 5.232-13.637999 5.232 6.551999-10.596 6.546-10.595999-8.669999 5.358-8.676 5.357999-42.239999-24.899999c-23.238-13.704-47.789999-25.979999-54.563999-27.287999l-12.324-2.382V443.999991h-119.999998l-2.154-178.715996-2.154-178.721997 10.158 3.72 10.152 3.72-2.196 9.594-2.202 9.594 9.414-5.82 9.414-5.82 10.781999 14.76c5.934 8.112 10.788 12.186 10.788 9.06 0-3.132 14.526 1.716 32.28 10.775999l32.279999 16.47-4.452 7.206-4.452 7.212 14.172-0.798c7.794-0.432 27.671999 7.338 44.171999 17.279999 30.899999 18.606 42.077999 31.511999 14.526 16.764-8.508-4.554-18.408-8.136-22.002-7.962-3.588 0.18 3.462 5.736 15.666 12.36l22.187999 12.03 7.812-4.824 7.812-4.83v17.886l7.086-4.38 7.092-4.38 4.164 15.911999 4.158 15.906 10.751999-0.63 10.746-0.63-10.002-4.038c-5.496-2.22-9.996-7.458-9.995999-11.646v-7.619999l16.223999 8.687999 16.224 8.682-5.46 8.832-5.46 8.838 8.16-5.046 8.166-5.046 45.149999 24.45 45.143999 24.449999-5.31 8.598-5.31 8.592 9.582-5.922 9.588-5.928 11.652 9.666 11.645999 9.672V702.041986l-11.645999 9.666-11.652 9.672-9.588-5.928-9.582-5.922 4.908 7.944 4.914 7.944-31.679999 17.801999-31.674 17.802-0.24-6.51c-0.138-3.582-3.912-0.21-8.4 7.488l-8.153999 13.998h-23.202z"  /><path d="M559.049989 929.999982c-0.516-3.3-0.432-8.97 0.198-12.6l1.146-6.588-9.408 5.82-9.414 5.814-10.787999-14.754c-5.928-8.112-10.782-12.186-10.782-9.06 0 3.132-14.532-1.716-32.28-10.775999l-32.285999-16.47 5.52-8.928 5.52-8.928-10.452 6.456-10.452 6.456-10.787999-14.748c-5.928-8.112-10.782-12.174-10.782-9.017999s-10.8 0.15-24-6.678c-13.2-6.822-24-14.244-23.999999-16.482 0-2.244 6.96-0.354 15.473999 4.2 8.508 4.56 18.408 8.16 21.996 7.998 3.594-0.156-2.292-5.16-13.068-11.136l-19.595999-10.848-10.404 3.99-10.404 3.99v-7.518c0-4.14-4.5-7.608-10.002-7.704-15.48-0.282-69.995999-35.027999-69.995998-44.609999v-8.544l-5.016 5.016-5.016 5.01-23.244-12.018-23.249999-12.023999 4.68-7.566 4.679999-7.566-13.733999 5.268-13.728 5.268 6.552-10.596 6.546-10.596-9.588 5.922-9.582 5.928-11.652-9.672-11.651999-9.666V321.959994l11.651999-9.672 11.652-9.66 9.582 5.922 9.588 5.922-5.31-8.592-5.31-8.598 45.491999-24.641999c25.02-13.554 48.329999-24.642 51.791999-24.642h6.3l2.28 188.009996 2.28 188.003997-7.998 3.36-7.998 3.36 16.002 0.774c18.51 0.888 94.205998 43.619999 88.097998 49.727999-2.256 2.256 0.402 4.242 5.898 4.416 5.502 0.174 15.402 1.674 22.002 3.33l11.999999 3.017999 4.002-55.997998 3.996-55.997999h119.999998l2.16 177.995996L576.299989 935.999982h-8.154c-4.482 0-8.58-2.7-9.102-6z m152.003997-340.001994c-0.522-102.299998-0.378-190.439996 0.318-195.869996l1.272-9.87-13.632 5.232-13.637999 5.232 6.551999-10.596 6.546-10.595999-8.669999 5.358-8.676 5.357999-42.239999-24.899999c-23.238-13.704-47.789999-25.979999-54.563999-27.287999l-12.324-2.382V443.999991h-119.999998l-2.154-178.715996-2.154-178.721997 10.158 3.72 10.152 3.72-2.196 9.594-2.202 9.594 9.414-5.82 9.414-5.82 10.781999 14.76c5.934 8.112 10.788 12.186 10.788 9.06 0-3.132 14.526 1.716 32.28 10.775999l32.279999 16.47-4.23 6.852-4.236 6.858 12.366 4.74 12.372 4.752-5.832-9.438-5.832-9.438 31.415999 18.81c17.28 10.344 35.015999 22.272 39.419999 26.507999l7.998 7.698-17.477999-8.976c-26.309999-13.524-33.881999-10.164-8.334 3.696l22.187999 12.03 7.812-4.824 7.812-4.83v17.886l7.998-4.938 7.998-4.944V239.435995l16.685999 8.928c9.18 4.914 18.45 7.17 20.604 5.016 2.16-2.16-3.552-6.288-12.684-9.186-9.132-2.898-16.602-8.982-16.601999-13.518V222.419996l25.997999 17.099999c14.298 9.402 43.235999 26.081999 64.295999 37.068l38.297999 19.979999-5.532 8.946-5.532 8.952 9.582-5.922 9.588-5.928 11.652 9.666 11.645999 9.672V702.041986l-11.645999 9.666-11.652 9.672-9.588-5.928-9.582-5.922 4.908 7.944 4.914 7.944-31.679999 17.801999-31.674 17.802-0.24-6.51c-0.138-3.582-3.912-0.21-8.4 7.488l-8.153999 13.998h-23.202z"  /><path d="M559.049989 929.999982c-0.516-3.3-0.432-8.97 0.198-12.6l1.146-6.588-9.408 5.82-9.414 5.814-10.787999-14.754c-5.928-8.112-10.782-12.186-10.782-9.06 0 3.132-14.532-1.716-32.28-10.775999l-32.285999-16.47 4.698-7.602 4.698-7.602-12.36 4.746-12.366 4.74-7.547999-18.834L425.015992 827.999984l-0.51 10.2-0.504 10.211999-24-12.413999c-13.2-6.822-24-14.244-23.999999-16.482 0-2.244 6.96-0.354 15.473999 4.2 8.508 4.56 18.408 8.16 21.996 7.998 3.594-0.156-2.292-5.16-13.068-11.136l-19.595999-10.848-10.404 3.99-10.404 3.99v-7.518c0-4.14-4.5-7.608-10.002-7.704-5.496-0.102-23.496-8.256-39.995999-18.119999l-29.999999-17.946-0.636-13.212-0.63-13.211999-3.996 9.881999-3.996 9.882-23.634-12.222-23.633999-12.221999 5.496-8.892 5.501999-8.898-9.587999 5.928-9.588 5.922-19.65-12.87-19.649999-12.876V321.959994l11.651999-9.672 11.652-9.66 9.582 5.922 9.588 5.922-5.31-8.592-5.31-8.598 45.491999-24.641999c25.02-13.554 48.329999-24.642 51.791999-24.642h6.3l2.28 188.009996 2.28 188.003997h-6l-6-0.012V256.001995l-6-0.012-6-0.006 4.002 186.005996 4.002 186.011997 18 2.556 17.999999 2.556v17.549999l5.226-5.22 5.226-5.232 28.776 17.172c15.822 9.45 32.369999 20.64 36.773999 24.876L419.999992 689.957987l-19.998-9.42-20.003999-9.42 13.727999 11.124 13.728 11.123999 18.276-1.32 18.269999-1.319999 2.34-52.211999 2.34-52.211999 52.541999-1.446c28.901999-0.792 56.645999-2.214 61.661999-3.15l9.12-1.704 2.37 177.995996 2.376 178.001997h-8.376c-4.608 0-8.802-2.7-9.324-6z m152.003997-340.001994c-0.522-102.299998-0.378-190.439996 0.318-195.869996l1.272-9.87-13.632 5.232-13.637999 5.232 6.551999-10.596 6.546-10.595999-8.357999 5.16-8.352 5.166-36.918-20.634c-20.304-11.346-35.435999-23.028-33.629999-25.956l3.294-5.321999-21.252-0.288-21.257999-0.288V443.999991h-119.999998l-2.37-178.001996-2.376-177.995997h7.902c4.344 0 9.936 3.288 12.42 7.32l4.524 7.314-10.05 4.608-10.05 4.608 17.406-4.278 17.405999-4.278 8.352 14.352c4.596 7.896 8.46 11.58 8.592 8.19 0.138-3.39 14.772 1.248 32.526 10.307999l32.279999 16.47-4.23 6.852-4.236 6.858 12.366 4.74 12.372 4.752-5.832-9.438-5.832-9.438 31.415999 18.81c17.28 10.344 35.015999 22.272 39.419999 26.507999l7.998 7.698-17.477999-8.976c-26.309999-13.524-33.881999-10.164-8.334 3.696l22.187999 12.03 7.812-4.824 7.812-4.83v17.886l7.998-4.938 7.998-4.944V239.435995l16.685999 8.928c9.18 4.914 18.45 7.17 20.604 5.016 2.16-2.16-3.552-6.288-12.684-9.186-9.132-2.898-16.602-8.982-16.601999-13.518V222.419996l25.997999 17.099999c14.298 9.402 43.235999 26.081999 64.295999 37.068l38.297999 19.979999-5.532 8.946-5.532 8.952 9.582-5.922 9.588-5.928 11.652 9.666 11.645999 9.672V702.041986l-11.645999 9.666-11.652 9.672-9.588-5.928-9.582-5.922 6.546 10.596 6.546 10.596-13.728-5.268-13.727999-5.268 4.679999 7.56 4.68 7.572-24.263999 12.545999-24.264 12.546-0.24-6.204c-0.138-3.414-3.912 0.096-8.4 7.794l-8.153999 13.998h-23.202z"  /><path d="M559.049989 929.999982c-0.516-3.3-0.432-8.97 0.198-12.6l1.146-6.588-9.408 5.82-9.414 5.814-10.787999-14.754c-5.928-8.112-10.782-12.186-10.782-9.06 0 3.132-14.532-1.716-32.28-10.775999l-32.285999-16.47 4.698-7.602 4.698-7.602-12.36 4.746-12.366 4.74-7.547999-18.834L425.015992 827.999984l-0.51 10.2-0.504 10.211999-24-12.413999c-13.2-6.822-24-14.244-23.999999-16.482 0-2.244 6.96-0.354 15.473999 4.2 8.508 4.56 18.408 8.16 21.996 7.998 3.594-0.156-2.292-5.16-13.068-11.136l-19.595999-10.848-10.404 3.99-10.404 3.99v-7.518c0-4.14-4.5-7.608-10.002-7.704-5.496-0.102-23.496-8.256-39.995999-18.119999l-29.999999-17.946-0.636-13.212-0.63-13.211999-3.996 9.881999-3.996 9.882-23.634-12.222-23.633999-12.221999 5.496-8.892 5.501999-8.898-9.587999 5.928-9.588 5.922-19.65-12.87-19.649999-12.876V321.959994l11.651999-9.672 11.652-9.66 9.582 5.922 9.588 5.922-5.31-8.592-5.31-8.598 45.491999-24.641999c25.02-13.554 48.329999-24.642 51.791999-24.642h6.3l2.28 188.009996 2.28 188.003997h-6l-6-0.012V256.001995l-6-0.012-6-0.006 4.002 186.005996 4.002 186.011997 18 2.556 17.999999 2.556v17.549999l5.226-5.22 5.226-5.232 28.776 17.172c15.822 9.45 32.369999 20.64 36.773999 24.876L419.999992 689.957987l-19.998-9.42-20.003999-9.42 13.727999 11.124 13.728 11.123999 18.276-1.32 18.269999-1.319999 2.34-52.211999 2.34-52.211999 52.541999-1.446c28.901999-0.792 56.645999-2.214 61.661999-3.15l9.12-1.704 2.37 177.995996 2.376 178.001997h-8.376c-4.608 0-8.802-2.7-9.324-6z m152.003997-340.001994c-0.522-102.299998-0.378-190.439996 0.318-195.869996l1.272-9.87-13.632 5.232-13.637999 5.232 6.551999-10.596 6.546-10.595999-8.357999 5.16-8.352 5.166-36.918-20.634c-20.304-11.346-35.435999-23.028-33.629999-25.956l3.294-5.321999-21.252-0.288-21.257999-0.288V443.999991h-119.999998l-2.37-178.001996-2.376-177.995997h7.902c4.344 0 9.936 3.288 12.42 7.32l4.524 7.314-10.05 4.608-10.05 4.608 17.406-4.278 17.405999-4.278 8.352 14.352c4.596 7.896 8.46 11.58 8.592 8.19 0.138-3.39 14.772 1.248 32.526 10.307999l32.279999 16.47-4.23 6.852-4.236 6.858 12.366 4.74 12.372 4.752-5.832-9.438-5.832-9.438 31.415999 18.81c17.28 10.344 35.015999 22.272 39.419999 26.507999l7.998 7.698-17.477999-8.976c-26.309999-13.524-33.881999-10.164-8.334 3.696l22.187999 12.03 7.812-4.824 7.812-4.83v17.886l7.998-4.938 7.998-4.944V239.435995l16.685999 8.928c9.18 4.914 18.45 7.17 20.604 5.016 2.16-2.16-3.552-6.288-12.684-9.186-9.132-2.898-16.602-8.982-16.601999-13.518V222.419996l25.997999 17.099999c14.298 9.402 43.235999 26.081999 64.295999 37.068l38.297999 19.979999-4.716 7.62-4.71 7.62 11.136-4.272 11.13-4.272 9.432 11.364 9.425999 11.358-2.142 191.003996-2.147999 191.003996-5.658-4.002c-3.108-2.196-10.662 2.85-16.788 11.22l-11.13 15.228-10.446-6.462-10.451999-6.456 5.495999 8.898 5.502 8.892-24.263999 12.545999-24.264 12.546-0.24-6.204c-0.138-3.414-3.912 0.096-8.4 7.794l-8.153999 13.998h-23.202z"  /><path d="M559.049989 929.999982c-0.516-3.3-0.432-8.97 0.198-12.6l1.146-6.588-9.408 5.82-9.414 5.814-10.787999-14.754c-5.928-8.112-10.782-12.186-10.782-9.06 0 3.132-14.532-1.716-32.28-10.775999l-32.285999-16.47 4.698-7.602 4.698-7.602-12.36 4.746-12.366 4.74-7.547999-18.834L425.015992 827.999984l-0.51 10.2-0.504 10.211999-24-12.413999c-13.2-6.822-24-14.244-23.999999-16.482 0-2.244 6.96-0.354 15.473999 4.2 8.508 4.56 18.408 8.16 21.996 7.998 3.594-0.156-2.292-5.16-13.068-11.136l-19.595999-10.848-10.404 3.99-10.404 3.99v-7.518c0-4.14-4.5-7.608-10.002-7.704-5.496-0.102-23.496-8.256-39.995999-18.119999l-29.999999-17.946-0.636-13.212-0.63-13.211999-3.996 9.881999-3.996 9.882-23.634-12.222-23.633999-12.221999 5.496-8.892 5.501999-8.898-9.587999 5.928-9.588 5.922-19.65-12.87-19.649999-12.876V321.959994l11.651999-9.672 11.652-9.66 9.582 5.922 9.588 5.922-5.31-8.592-5.31-8.598 45.491999-24.641999c25.02-13.554 48.329999-24.642 51.791999-24.642h6.3l2.28 188.009996 2.28 188.003997h-6l-6-0.012V256.001995l-6-0.012-6-0.006 4.002 186.005996 4.002 186.011997 18 2.556 17.999999 2.556v17.549999l5.226-5.22 5.226-5.232 28.776 17.172c15.822 9.45 32.369999 20.64 36.773999 24.876L419.999992 689.957987l-19.998-9.42-20.003999-9.42 13.727999 11.124 13.728 11.123999 18.276-1.32 18.269999-1.319999 2.34-52.211999 2.34-52.211999 52.541999-1.446c28.901999-0.792 56.645999-2.214 61.661999-3.15l9.12-1.704 2.37 177.995996 2.376 178.001997h-8.376c-4.608 0-8.802-2.7-9.324-6z m152.003997-340.001994c-0.522-102.299998-0.378-190.439996 0.318-195.869996l1.272-9.87-13.632 5.232-13.637999 5.232 6.551999-10.596 6.546-10.595999-8.357999 5.16-8.352 5.166-36.918-20.634-36.917999-20.628 3.93-6.36 3.93-6.359999-22.32 0.918-22.319999 0.912 0.432 56.147998 0.42 56.147999h-119.999998l-2.37-178.001996-2.376-177.995997h7.902c4.344 0 9.936 3.288 12.42 7.32l4.524 7.314-10.05 4.608-10.05 4.608 17.406-4.278 17.405999-4.278 8.352 14.352c4.596 7.896 8.46 11.58 8.598 8.19 0.132-3.39 14.766 1.248 32.52 10.307999l32.279999 16.47-4.23 6.852-4.236 6.858 12.366 4.74 12.372 4.752-5.832-9.438-5.832-9.438 31.415999 18.81c17.28 10.344 35.015999 22.272 39.419999 26.507999l7.998 7.698-17.477999-8.976c-26.309999-13.524-33.881999-10.164-8.334 3.696l22.187999 12.03 7.812-4.824 7.812-4.83v17.886l7.998-4.938 7.998-4.944V239.435995l16.685999 8.928c9.18 4.914 18.45 7.17 20.604 5.016 2.16-2.16-3.552-6.288-12.684-9.186-9.132-2.898-16.602-8.982-16.601999-13.518V222.419996l25.997999 17.099999c14.298 9.402 43.235999 26.081999 64.295999 37.068l38.297999 19.979999-4.716 7.62-4.71 7.62 11.136-4.272 11.13-4.272 9.432 11.364 9.425999 11.358-2.142 191.003996-2.147999 191.003996-5.658-4.002c-3.108-2.196-10.662 2.85-16.788 11.22l-11.13 15.228-10.446-6.462-10.451999-6.456 5.495999 8.898 5.502 8.892-24.263999 12.545999-24.264 12.546-0.24-6.204c-0.138-3.414-3.912 0.096-8.4 7.794l-8.153999 13.998h-23.202z"  /><path d="M559.049989 929.999982c-0.516-3.3-0.432-8.97 0.198-12.6l1.146-6.588-9.408 5.82-9.414 5.814-10.787999-14.754c-5.928-8.112-10.782-12.186-10.782-9.06 0 3.132-14.532-1.716-32.28-10.775999l-32.285999-16.47 4.698-7.602 4.698-7.602-12.36 4.746-12.366 4.74-7.547999-18.834L425.015992 827.999984l-0.51 10.2-0.504 10.211999-24-12.413999c-13.2-6.822-24-14.244-23.999999-16.482 0-2.244 6.96-0.354 15.473999 4.2 8.508 4.56 18.408 8.16 21.996 7.998 3.594-0.156-2.292-5.16-13.068-11.136l-19.595999-10.848-10.404 3.99-10.404 3.99v-7.518c0-4.14-4.5-7.608-10.002-7.704-5.496-0.102-23.496-8.256-39.995999-18.119999l-29.999999-17.946-0.636-13.212-0.63-13.211999-3.996 9.881999-3.996 9.882-23.634-12.222-23.633999-12.221999 5.496-8.892 5.501999-8.898-9.587999 5.928-9.588 5.922-19.65-12.87-19.649999-12.876V321.959994l11.651999-9.672 11.652-9.66 9.582 5.922 9.588 5.922-5.31-8.592-5.31-8.598 45.491999-24.641999c25.02-13.554 48.329999-24.642 51.791999-24.642h6.3l2.28 188.009996 2.28 188.003997h-6l-6-0.012V256.001995l-6-0.012-6-0.006 4.002 186.005996 4.002 186.011997 18 2.556 17.999999 2.556v17.549999l5.226-5.22 5.226-5.232 28.776 17.172c15.822 9.45 32.369999 20.64 36.773999 24.876L419.999992 689.957987l-19.998-9.42-20.003999-9.42 13.727999 11.124 13.728 11.123999 18.276-1.32 18.269999-1.319999 2.352-52.829999 2.352-52.829999 55.661999 1.464 55.655999 1.47-0.012-6.474-0.012-6.468 7.44 4.59 7.434 4.596 0.822 175.877996 0.822 175.877997H568.259989c-4.542 0-8.688-2.7-9.21-6z m152.003997-340.001994c-0.522-102.299998-0.378-190.439996 0.318-195.869996l1.272-9.87-13.632 5.232-13.637999 5.232 6.551999-10.596 6.546-10.595999-8.357999 5.16-8.352 5.166-36.918-20.634-36.917999-20.628 3.93-6.36 3.93-6.359999-22.32 0.918-22.319999 0.912 0.432 56.147998 0.42 56.147999h-119.999998l-2.37-178.001996-2.376-177.995997h7.902c4.344 0 9.936 3.288 12.42 7.32l4.524 7.314-10.05 4.608-10.05 4.608 17.406-4.278 17.405999-4.278 8.352 14.352c4.596 7.896 8.46 11.58 8.598 8.19 0.132-3.39 14.766 1.248 32.52 10.307999l32.279999 16.47-4.23 6.852-4.236 6.858 12.366 4.74 12.372 4.752-5.832-9.438-5.832-9.438 31.415999 18.81c17.28 10.344 35.015999 22.272 39.419999 26.507999l7.998 7.698-17.477999-8.976c-26.309999-13.524-33.881999-10.164-8.334 3.696l22.187999 12.03 7.812-4.824 7.812-4.83v17.886l7.998-4.938 7.998-4.944V239.435995l16.685999 8.928c9.18 4.914 18.45 7.17 20.604 5.016 2.16-2.16-3.552-6.288-12.684-9.186-9.132-2.898-16.602-8.982-16.601999-13.518V222.419996l25.997999 17.099999c14.298 9.402 43.235999 26.081999 64.295999 37.068l38.297999 19.979999-4.716 7.62-4.71 7.62 11.136-4.272 11.13-4.272 9.432 11.364 9.425999 11.358-2.142 191.003996-2.147999 191.003996-5.658-4.002c-3.108-2.196-10.662 2.85-16.788 11.22l-11.13 15.228-10.446-6.462-10.451999-6.456 5.495999 8.898 5.502 8.892-24.263999 12.545999-24.264 12.546-0.24-6.204c-0.138-3.414-3.912 0.096-8.4 7.794l-8.153999 13.998h-23.202z"  /><path d="M559.049989 929.999982c-0.516-3.3-0.432-8.97 0.198-12.6l1.146-6.588-9.408 5.82-9.414 5.814-10.787999-14.754c-5.928-8.112-10.782-12.186-10.782-9.06 0 3.132-14.532-1.716-32.28-10.775999l-32.285999-16.47 4.698-7.602 4.698-7.602-12.36 4.746-12.366 4.74-7.547999-18.834L425.015992 827.999984l-0.51 10.2-0.504 10.211999-24-12.413999c-13.2-6.822-24-14.244-23.999999-16.482 0-2.244 6.96-0.354 15.473999 4.2 8.508 4.56 18.408 8.16 21.996 7.998 3.594-0.156-2.292-5.16-13.068-11.136l-19.595999-10.848-10.404 3.99-10.404 3.99v-7.518c0-4.14-4.5-7.608-10.002-7.704-5.496-0.102-23.496-8.256-39.995999-18.119999l-29.999999-17.946-0.636-13.212-0.63-13.211999-3.996 9.881999-3.996 9.882-23.634-12.222-23.633999-12.221999 5.496-8.892 5.501999-8.898-9.587999 5.928-9.588 5.922-19.65-12.87-19.649999-12.876V321.959994l11.651999-9.672 11.652-9.66 9.582 5.922 9.588 5.922-5.31-8.592-5.31-8.598 45.491999-24.641999c25.02-13.554 48.329999-24.642 51.791999-24.642h6.3l2.28 188.009996 2.28 188.003997h-6l-6-0.012V256.001995l-6-0.012-6-0.006 4.002 186.005996 4.002 186.011997 18 2.556 17.999999 2.556v17.549999l5.226-5.22 5.226-5.232 28.776 17.172c15.822 9.45 32.369999 20.64 36.773999 24.876L419.999992 689.957987l-19.998-9.96-20.003999-9.96 9.251999 9.828 9.24 9.828 26.94 1.799999 26.939999 1.812-3.06-54.137998-3.06-54.137999 56.885999 1.488 56.879999 1.482-0.006-6.474-0.012-6.468 7.44 4.59 7.434 4.596 0.822 175.877996 0.822 175.877997H568.259989c-4.542 0-8.688-2.7-9.21-6z m152.003997-340.001994c-0.522-102.299998-0.378-190.439996 0.318-195.869996l1.272-9.87-13.632 5.232-13.637999 5.232 6.551999-10.596 6.546-10.595999-8.357999 5.16-8.352 5.166-36.918-20.634-36.917999-20.628 3.93-6.36 3.93-6.359999-22.32 0.918-22.319999 0.912 0.432 56.147998 0.42 56.147999h-119.999998l-2.37-178.001996-2.376-177.995997h7.902c4.344 0 9.936 3.288 12.42 7.32l4.524 7.314-10.05 4.608-10.05 4.608 17.406-4.278 17.405999-4.278 8.352 14.352c4.596 7.896 8.46 11.58 8.598 8.19 0.132-3.39 14.766 1.248 32.52 10.307999l32.279999 16.47-4.23 6.852-4.236 6.858 12.366 4.74 12.372 4.752-5.832-9.438-5.832-9.438 31.415999 18.81c17.28 10.344 35.015999 22.272 39.419999 26.507999l7.998 7.698-17.477999-8.976c-26.309999-13.524-33.881999-10.164-8.334 3.696l22.187999 12.03 7.812-4.824 7.812-4.83v17.886l7.998-4.938 7.998-4.944V239.435995l16.685999 8.928c9.18 4.914 18.45 7.17 20.604 5.016 2.16-2.16-3.552-6.288-12.684-9.186-9.132-2.898-16.602-8.982-16.601999-13.518V222.419996l25.997999 17.099999c14.298 9.402 43.235999 26.081999 64.295999 37.068l38.297999 19.979999-4.716 7.62-4.71 7.62 11.136-4.272 11.13-4.272 9.432 11.364 9.425999 11.358-2.142 191.003996-2.147999 191.003996-5.658-4.002c-3.108-2.196-10.662 2.85-16.788 11.22l-11.13 15.228-10.446-6.462-10.451999-6.456 5.495999 8.898 5.502 8.892-24.263999 12.545999-24.264 12.546-0.24-6.204c-0.138-3.414-3.912 0.096-8.4 7.794l-8.153999 13.998h-23.202z"  /><path d="M559.049989 929.999982c-0.516-3.3-0.432-8.97 0.198-12.6l1.146-6.588-9.408 5.82-9.414 5.814-10.787999-14.754c-5.928-8.112-10.782-12.186-10.782-9.06 0 3.132-14.532-1.716-32.28-10.775999l-32.285999-16.47 4.698-7.602 4.698-7.602-12.36 4.746-12.366 4.74-7.547999-18.834L425.015992 827.999984l-0.51 10.2-0.504 10.211999-24-12.413999c-13.2-6.822-24-14.244-23.999999-16.482 0-2.244 6.96-0.354 15.473999 4.2 8.508 4.56 18.408 8.16 21.996 7.998 3.594-0.156-2.292-5.16-13.068-11.136l-19.595999-10.848-10.404 3.99-10.404 3.99v-7.518c0-4.14-4.5-7.608-10.002-7.704-5.496-0.102-23.496-8.256-39.995999-18.119999l-29.999999-17.946-0.636-13.212-0.63-13.211999-3.996 9.881999-3.996 9.882-23.634-12.222-23.633999-12.221999 5.496-8.892 5.501999-8.898-9.587999 5.928-9.588 5.922-19.65-12.87-19.649999-12.876V321.959994l11.651999-9.672 11.652-9.66 9.582 5.922 9.588 5.922-5.31-8.592-5.31-8.598 45.491999-24.641999c25.02-13.554 48.329999-24.642 51.791999-24.642h6.3l2.28 188.009996 2.28 188.003997h-6l-6-0.012V256.001995l-6-0.012-6-0.006 4.002 186.005996 4.002 186.011997 18 2.556 17.999999 2.556v17.549999l5.226-5.22 5.226-5.232 28.776 17.172c15.822 9.45 32.369999 20.64 36.773999 24.876L419.999992 689.957987l-19.998-9.96-20.003999-9.96 9.827999 10.404 9.822 10.404 26.178 1.313999 26.171999 1.308-1.512-54.197998-1.518-54.203999 55.523999 1.47 55.529999 1.464-0.012-6.474-0.012-6.468 7.44 4.59 7.434 4.596 0.822 175.877996 0.822 175.877997H568.259989c-4.542"  /></svg>